<svg width="15" height="15" viewBox="0 0 15 15" fill="none" xmlns="http://www.w3.org/2000/svg">
<circle cx="7.5" cy="7.5" r="7.5" fill="#56B984"/>
<path d="M10.1709 7.45996V10.0625C10.083 10.1927 9.94303 10.3392 9.75098 10.502C9.55892 10.6615 9.29362 10.8014 8.95508 10.9219C8.61979 11.0391 8.18685 11.0977 7.65625 11.0977C7.22331 11.0977 6.82454 11.0228 6.45996 10.873C6.09863 10.7201 5.78451 10.4987 5.51758 10.209C5.25391 9.91602 5.04883 9.5612 4.90234 9.14453C4.75911 8.72461 4.6875 8.24935 4.6875 7.71875V7.16699C4.6875 6.63639 4.74935 6.16276 4.87305 5.74609C5 5.32943 5.18555 4.97624 5.42969 4.68652C5.67383 4.39355 5.97331 4.1722 6.32812 4.02246C6.68294 3.86947 7.08984 3.79297 7.54883 3.79297C8.09245 3.79297 8.54655 3.88737 8.91113 4.07617C9.27897 4.26172 9.56543 4.51888 9.77051 4.84766C9.97884 5.17643 10.1123 5.55078 10.1709 5.9707H9.22852C9.1862 5.71354 9.10156 5.47917 8.97461 5.26758C8.85091 5.05599 8.6735 4.88672 8.44238 4.75977C8.21126 4.62956 7.91341 4.56445 7.54883 4.56445C7.22005 4.56445 6.93522 4.62467 6.69434 4.74512C6.45345 4.86556 6.25488 5.03809 6.09863 5.2627C5.94238 5.4873 5.8252 5.75911 5.74707 6.07812C5.6722 6.39714 5.63477 6.75684 5.63477 7.15723V7.71875C5.63477 8.12891 5.68197 8.49512 5.77637 8.81738C5.87402 9.13965 6.01237 9.41471 6.19141 9.64258C6.37044 9.86719 6.58366 10.0381 6.83105 10.1553C7.08171 10.2725 7.3584 10.3311 7.66113 10.3311C7.99642 10.3311 8.26823 10.3034 8.47656 10.248C8.6849 10.1895 8.84766 10.1211 8.96484 10.043C9.08203 9.96159 9.17155 9.88509 9.2334 9.81348V8.22168H7.58789V7.45996H10.1709Z" fill="#FDFDFD"/>
</svg>
