<svg width="15" height="15" viewBox="0 0 15 15" fill="none" xmlns="http://www.w3.org/2000/svg">
<path d="M15 7.5C15 11.6421 11.6421 15 7.5 15C3.35786 15 0 11.6421 0 7.5C0 3.35786 3.35786 0 7.5 0C11.6421 0 15 3.35786 15 7.5Z" fill="#FEE227"/>
<path d="M7.79297 8.21191H6.11328V7.44531H7.79297C8.16081 7.44531 8.45866 7.38672 8.68652 7.26953C8.91439 7.15234 9.0804 6.98958 9.18457 6.78125C9.29199 6.57292 9.3457 6.33529 9.3457 6.06836C9.3457 5.82422 9.29199 5.59473 9.18457 5.37988C9.0804 5.16504 8.91439 4.99251 8.68652 4.8623C8.45866 4.72884 8.16081 4.66211 7.79297 4.66211H6.11328V11H5.1709V3.89062H7.79297C8.33008 3.89062 8.78418 3.9834 9.15527 4.16895C9.52637 4.35449 9.80794 4.61165 10 4.94043C10.1921 5.26595 10.2881 5.63867 10.2881 6.05859C10.2881 6.51432 10.1921 6.90332 10 7.22559C9.80794 7.54785 9.52637 7.79362 9.15527 7.96289C8.78418 8.12891 8.33008 8.21191 7.79297 8.21191Z" fill="#1C1C1C"/>
</svg>
